<svg width="83" height="83" viewBox="0 0 83 83" fill="none" xmlns="http://www.w3.org/2000/svg">
<circle cx="41.5" cy="41.5" r="41.5" fill="#12372A"/>
<path d="M35.375 31.3334H47.625C48.1665 31.3334 48.6858 31.1183 49.0687 30.7354C49.4516 30.3525 49.6667 29.8332 49.6667 29.2917C49.6667 28.7502 49.4516 28.2309 49.0687 27.848C48.6858 27.4651 48.1665 27.25 47.625 27.25H35.375C34.8335 27.25 34.3142 27.4651 33.9313 27.848C33.5484 28.2309 33.3333 28.7502 33.3333 29.2917C33.3333 29.8332 33.5484 30.3525 33.9313 30.7354C34.3142 31.1183 34.8335 31.3334 35.375 31.3334ZM36.3346 24.1875C36.3647 24.4365 36.4854 24.6657 36.6736 24.8314C36.8619 24.9971 37.1046 25.0877 37.3554 25.0859H45.5833C45.8329 25.0833 46.0733 24.9912 46.2606 24.8264C46.448 24.6615 46.5699 24.4348 46.6042 24.1875C47.0531 22.0173 47.8826 19.9437 49.0542 18.0625C49.1623 17.88 49.207 17.6669 49.1811 17.4563C49.1553 17.2457 49.0604 17.0497 48.9112 16.8988C48.7881 16.7366 48.6193 16.6149 48.4264 16.5494C48.2336 16.4839 48.0256 16.4776 47.8292 16.5313L44.0317 18.1646C43.968 18.1954 43.8982 18.2113 43.8275 18.2113C43.7568 18.2113 43.687 18.1954 43.6233 18.1646C43.4967 18.1175 43.3939 18.022 43.3375 17.8992L42.4392 15.633C42.3607 15.4488 42.2299 15.2918 42.0629 15.1814C41.8959 15.0711 41.7002 15.0122 41.5 15.0122C41.2998 15.0122 41.1041 15.0711 40.9371 15.1814C40.7701 15.2918 40.6393 15.4488 40.5608 15.633L39.6625 17.8992C39.6061 18.022 39.5033 18.1175 39.3767 18.1646C39.313 18.1954 39.2432 18.2113 39.1725 18.2113C39.1018 18.2113 39.032 18.1954 38.9683 18.1646L35.1708 16.5313C34.9761 16.4525 34.7618 16.4357 34.5572 16.4832C34.3526 16.5307 34.1676 16.6402 34.0275 16.7967C33.8784 16.9476 33.7835 17.1437 33.7576 17.3542C33.7318 17.5648 33.7764 17.778 33.8846 17.9605C35.0674 19.8728 35.8972 21.9819 36.3346 24.1875ZM48.5233 33.62C48.3127 33.4583 48.0539 33.372 47.7883 33.375H35.2117C34.9461 33.372 34.6873 33.4583 34.4767 33.62C29.2704 37.7034 23.4517 44.645 23.4517 50.77C23.4517 59.4063 28.27 64 41.5 64C54.73 64 59.5483 59.4063 59.5483 50.77C59.5483 44.645 53.75 37.6013 48.5233 33.62ZM43.5417 56.0988C43.4226 56.1221 43.3152 56.1854 43.2372 56.2783C43.1592 56.3712 43.1153 56.488 43.1129 56.6092V57.3646C43.1129 57.7707 42.9516 58.1602 42.6644 58.4474C42.3773 58.7346 41.9878 58.8959 41.5817 58.8959C41.1755 58.8959 40.7861 58.7346 40.4989 58.4474C40.2117 58.1602 40.0504 57.7707 40.0504 57.3646V56.7113C40.0504 56.5759 39.9966 56.4461 39.9009 56.3504C39.8052 56.2547 39.6754 56.2009 39.54 56.2009H38.3354C37.9293 56.2009 37.5398 56.0396 37.2527 55.7524C36.9655 55.4652 36.8042 55.0757 36.8042 54.6696C36.8042 54.2635 36.9655 53.874 37.2527 53.5869C37.5398 53.2997 37.9293 53.1384 38.3354 53.1384H42.725C43.0509 53.1496 43.37 53.0441 43.625 52.8408C43.8799 52.6375 44.0538 52.3498 44.1154 52.0296C44.177 51.7094 44.1221 51.3777 43.9608 51.0944C43.7995 50.811 43.5422 50.5947 43.2354 50.4842L38.7846 48.708C37.8875 48.372 37.1243 47.753 36.6102 46.9447C36.0962 46.1364 35.8593 45.1826 35.9354 44.2277C36.0115 43.2729 36.3965 42.3687 37.0321 41.652C37.6677 40.9354 38.5194 40.4451 39.4583 40.2555C39.5773 40.2322 39.6848 40.1688 39.7628 40.0759C39.8408 39.9831 39.8847 39.8663 39.8871 39.745V38.9896C39.8871 38.5835 40.0484 38.194 40.3356 37.9069C40.6227 37.6197 41.0122 37.4584 41.4183 37.4584C41.8244 37.4584 42.2139 37.6197 42.5011 37.9069C42.7882 38.194 42.9496 38.5835 42.9496 38.9896V39.643C42.9496 39.7783 43.0034 39.9082 43.0991 40.0039C43.1948 40.0996 43.3246 40.1534 43.46 40.1534H44.6646C45.0707 40.1534 45.4602 40.3147 45.7473 40.6019C46.0345 40.889 46.1958 41.2785 46.1958 41.6846C46.1958 42.0907 46.0345 42.4802 45.7473 42.7674C45.4602 43.0545 45.0707 43.2159 44.6646 43.2159H40.3567C40.0308 43.2046 39.7116 43.3102 39.4567 43.5135C39.2018 43.7168 39.0278 44.0045 38.9663 44.3247C38.9047 44.6448 38.9595 44.9765 39.1209 45.2599C39.2822 45.5432 39.5395 45.7596 39.8462 45.87L44.2971 47.6463C45.1939 47.9891 45.9543 48.6152 46.4628 49.4295C46.9714 50.2438 47.2003 51.2019 47.1149 52.1581C47.0294 53.1144 46.6342 54.0166 45.9893 54.7279C45.3444 55.4391 44.485 55.9204 43.5417 56.0988Z" fill="#F1C30C"/>
</svg>
