<svg width="91" height="91" viewBox="0 0 91 91" fill="none" xmlns="http://www.w3.org/2000/svg">
<g filter="url(#filter0_d_128_258)">
<circle cx="45.5" cy="41.5" r="41.5" fill="#12372A"/>
<path fill-rule="evenodd" clip-rule="evenodd" d="M33.5 31.6667C33.5 28.3515 34.817 25.1721 37.1612 22.8279C39.5054 20.4837 42.6848 19.1667 46 19.1667C49.3152 19.1667 52.4946 20.4837 54.8388 22.8279C57.183 25.1721 58.5 28.3515 58.5 31.6667H60.5833C61.6884 31.6667 62.7482 32.1057 63.5296 32.8871C64.311 33.6685 64.75 34.7283 64.75 35.8334V56.6668C64.75 57.7718 64.311 58.8316 63.5296 59.613C62.7482 60.3944 61.6884 60.8334 60.5833 60.8334H31.4167C30.3116 60.8334 29.2518 60.3944 28.4704 59.613C27.689 58.8316 27.25 57.7718 27.25 56.6668V35.8334C27.25 34.7283 27.689 33.6685 28.4704 32.8871C29.2518 32.1057 30.3116 31.6667 31.4167 31.6667H33.5ZM46 23.3334C48.2101 23.3334 50.3298 24.2114 51.8926 25.7742C53.4554 27.337 54.3333 29.4566 54.3333 31.6667H37.6667C37.6667 29.4566 38.5446 27.337 40.1074 25.7742C41.6702 24.2114 43.7899 23.3334 46 23.3334ZM50.1667 44.1667C50.1666 44.8981 49.9741 45.6166 49.6084 46.25C49.2427 46.8834 48.7167 47.4094 48.0833 47.7751V50.4167C48.0833 50.9693 47.8638 51.4992 47.4731 51.8899C47.0824 52.2806 46.5525 52.5001 46 52.5001C45.4475 52.5001 44.9176 52.2806 44.5269 51.8899C44.1362 51.4992 43.9167 50.9693 43.9167 50.4167V47.7751C43.1224 47.3164 42.5016 46.6085 42.1506 45.7612C41.7997 44.9138 41.7381 43.9743 41.9755 43.0883C42.2129 42.2024 42.736 41.4195 43.4636 40.8612C44.1913 40.3028 45.0828 40.0001 46 40.0001C47.1051 40.0001 48.1649 40.4391 48.9463 41.2205C49.7277 42.0019 50.1667 43.0617 50.1667 44.1667Z" fill="#F1C30C"/>
</g>
<defs>
<filter id="filter0_d_128_258" x="0" y="0" width="91" height="91" filterUnits="userSpaceOnUse" color-interpolation-filters="sRGB">
<feFlood flood-opacity="0" result="BackgroundImageFix"/>
<feColorMatrix in="SourceAlpha" type="matrix" values="0 0 0 0 0 0 0 0 0 0 0 0 0 0 0 0 0 0 127 0" result="hardAlpha"/>
<feOffset dy="4"/>
<feGaussianBlur stdDeviation="2"/>
<feComposite in2="hardAlpha" operator="out"/>
<feColorMatrix type="matrix" values="0 0 0 0 0 0 0 0 0 0 0 0 0 0 0 0 0 0 0.25 0"/>
<feBlend mode="normal" in2="BackgroundImageFix" result="effect1_dropShadow_128_258"/>
<feBlend mode="normal" in="SourceGraphic" in2="effect1_dropShadow_128_258" result="shape"/>
</filter>
</defs>
</svg>
