<svg width="83" height="88" viewBox="0 0 83 88" fill="none" xmlns="http://www.w3.org/2000/svg">
<ellipse cx="41.5" cy="44" rx="41.5" ry="44" fill="#12372A"/>
<path d="M42.5001 21.4167C39.6001 21.4167 36.7284 21.988 34.0492 23.0977C31.3699 24.2075 28.9354 25.8342 26.8848 27.8848C22.7434 32.0262 20.4167 37.6432 20.4167 43.5001C20.4167 49.3569 22.7434 54.9739 26.8848 59.1154C28.9354 61.166 31.3699 62.7926 34.0492 63.9024C36.7284 65.0122 39.6001 65.5834 42.5001 65.5834C48.3569 65.5834 53.9739 63.2568 58.1154 59.1154C62.2568 54.9739 64.5834 49.3569 64.5834 43.5001C64.5834 40.6001 64.0122 37.7284 62.9024 35.0492C61.7926 32.3699 60.166 29.9354 58.1154 27.8848C56.0647 25.8342 53.6303 24.2075 50.951 23.0977C48.2717 21.988 45.4001 21.4167 42.5001 21.4167ZM51.7751 52.7751L40.2917 45.7084V32.4584H43.6042V43.9417L53.5418 49.9042L51.7751 52.7751Z" fill="#F1C30C"/>
</svg>
